<svg id="Capa_1" enable-background="new 0 0 512 512" height="512" viewBox="0 0 512 512" width="512" xmlns="http://www.w3.org/2000/svg"><g><path d="m256 90c-91.533 0-166 74.467-166 166s74.467 166 166 166 166-74.467 166-166-74.467-166-166-166zm-15 30h30v30h-30zm-91 151h-30v-30h30zm121 121h-30v-30h30zm6.213-93.574-21.213-21.213-21.213 21.213-21.213-21.213 21.213-21.213-85.206-85.206 21.213-21.213 85.206 85.206 85.561-85.561 21.213 21.213-85.561 85.561 21.213 21.213zm84.787-27.426v-30h30v30z"/><path d="m256 0c-141.385 0-256 114.615-256 256s114.615 256 256 256 256-114.615 256-256-114.615-256-256-256zm0 452c-108.075 0-196-87.925-196-196s87.925-196 196-196 196 87.925 196 196-87.925 196-196 196z"/></g></svg>